<?xml version="1.0" standalone="no"?><!DOCTYPE svg PUBLIC "-//W3C//DTD SVG 1.1//EN" "http://www.w3.org/Graphics/SVG/1.1/DTD/svg11.dtd"><svg t="1587691126722" class="icon" viewBox="0 0 1168 1024" version="1.1" xmlns="http://www.w3.org/2000/svg" p-id="1938" xmlns:xlink="http://www.w3.org/1999/xlink" width="64" height="55"><defs><style type="text/css"></style></defs><path d="M517.844749 635.324201c-74.228311 0-106.374429-68.968037-106.374429-68.968037H327.305936v154.885845h84.164384v-52.60274s39.159817 52.60274 128 52.60274c95.853881 0 151.378995-58.447489 151.378995-134.429224 0-83.579909-91.762557-126.246575-172.420091-125.077625-77.73516 1.16895-87.671233-39.744292-87.671233-52.60274s9.351598-36.821918 59.031963-36.821918c54.940639 0 99.360731 70.721461 99.360731 70.721461h84.164383V309.187215h-84.164383v30.977169c-6.429224-7.598174-34.484018-34.484018-102.283105-34.484019-142.611872 0-158.977169 75.981735-158.977169 122.155251 0 70.136986 87.086758 119.232877 168.328767 120.401827 57.278539 0.584475 91.762557 15.780822 91.762557 43.251141-0.584475 11.689498-18.118721 43.835616-70.136986 43.835617z m180.60274-122.155251c0 114.557078 95.269406 208.073059 212.748858 208.073059 117.479452 0 212.748858-92.931507 212.748858-208.073059 0-114.557078-95.269406-208.073059-212.748858-208.07306-117.479452 0-212.748858 93.515982-212.748858 208.07306z m307.43379-1.753425c0 68.968037-39.744292 124.493151-89.424658 124.493151s-90.009132-55.525114-90.009132-124.493151 40.328767-124.493151 89.424657-124.493151c49.680365-0.584475 90.009132 55.525114 90.009133 124.493151z m-658.118722-362.374429c20.456621 12.858447 42.082192 23.378995 64.292238 32.730593-11.689498 22.794521-21.625571 45.589041-29.80822 69.552512h23.963471c8.182648-21.041096 16.949772-41.497717 28.054794-61.369863 44.420091 15.780822 90.593607 24.547945 137.936073 26.30137v35.068493h32.730594v-35.068493c46.757991-1.753425 93.515982-10.520548 137.936073-26.30137 10.520548 19.872146 19.872146 40.328767 28.054794 61.369863h23.963471c-8.182648-23.96347-18.703196-47.342466-30.392694-69.552512 22.210046-9.351598 43.835616-20.456621 64.292237-32.730593 42.082192 27.47032 78.319635 62.538813 108.712329 102.86758h45.004566C894.246575 119.817352 746.374429 40.328767 587.981735 40.328767S281.716895 119.817352 194.045662 251.908676H239.634703c29.808219-40.328767 66.630137-74.812785 108.127854-102.86758z m452.383562-16.949772c-16.365297 9.351598-33.315068 17.534247-50.849315 24.547945-14.611872-24.547945-32.146119-46.173516-52.60274-66.045662 36.237443 9.351598 71.305936 23.378995 103.452055 41.497717z m-164.821918-52.60274c33.899543 14.611872 65.461187 44.420091 91.762557 85.333334-39.744292 13.442922-80.657534 21.041096-122.739726 22.210045V77.150685c10.520548 0.584475 21.041096 1.16895 30.977169 2.337899z m-94.100457 0c10.520548-1.16895 20.456621-1.753425 30.977169-2.337899v110.465753c-41.497717-1.753425-82.995434-9.351598-122.739726-22.210045 26.30137-41.497717 57.863014-71.305936 91.762557-85.917809zM426.666667 156.639269c-17.534247-7.013699-34.484018-15.196347-50.849315-24.547945 32.730594-18.118721 67.214612-32.146119 103.452054-41.497717-20.456621 19.287671-37.990868 41.497717-52.602739 66.045662zM937.497717 771.506849c-30.392694 40.913242-67.799087 76.56621-111.050228 104.621005-19.872146-12.273973-40.913242-22.794521-62.538813-31.561644 12.273973-23.378995 22.794521-47.926941 30.977169-72.474886h-23.378996c-8.182648 22.210046-17.534247 43.835616-29.223744 64.292238-44.420091-15.780822-90.593607-24.547945-137.936073-26.30137v-35.068493h-32.730594v35.068493c-46.757991 1.753425-93.515982 10.520548-137.936073 26.30137-11.105023-20.456621-21.041096-42.082192-29.223744-64.292238h-23.96347c8.767123 25.13242 18.703196 49.09589 30.977169 72.474886-21.625571 8.767123-42.666667 19.287671-62.538813 31.561644-42.666667-28.054795-80.073059-63.123288-110.465754-104.621005h-45.004566c87.086758 132.675799 235.543379 212.164384 393.936073 212.164384 158.392694 0 306.849315-79.488584 393.936073-212.164384h-43.835616z m-562.849315 119.817352c16.365297-9.351598 32.730594-17.534247 50.26484-24.547945 14.027397 23.96347 30.977169 46.173516 50.849315 65.461187-35.652968-9.351598-69.552511-23.378995-101.114155-40.913242z m158.392694 52.60274c-32.146119-15.780822-61.369863-45.589041-85.917808-85.333334 40.328767-14.027397 82.410959-21.625571 124.49315-23.378995V946.849315c-12.858447-0.584475-25.716895-1.753425-38.575342-2.922374z m109.881278 0c-12.858447 1.753425-25.716895 2.3379-38.575342 2.922374v-111.634703c42.666667 1.753425 84.748858 9.351598 124.493151 23.378995-24.547945 39.744292-53.771689 68.968037-85.917809 85.333334z m108.712329-77.150685c16.949772 7.013699 33.899543 15.196347 50.26484 24.547945-31.561644 18.118721-65.461187 31.561644-100.52968 40.913242 19.287671-19.287671 36.237443-41.497717 50.26484-65.461187z m-466.410959-234.37443H216.840183V391.013699h68.383561V312.109589H50.849315v78.90411h64.292238v241.388127h-64.292238v90.009133h234.958904l-0.584475-90.009133z" fill="#6f7476" p-id="1939"></path></svg>