<svg xmlns="http://www.w3.org/2000/svg" xmlns:xlink="http://www.w3.org/1999/xlink" width="500" zoomAndPan="magnify" viewBox="0 0 375 374.999991" height="500" preserveAspectRatio="xMidYMid meet" version="1.0"><defs><clipPath id="dd8e9ad768"><path d="M 1 2 L 112 2 L 112 108 L 1 108 Z M 1 2 " clip-rule="nonzero"/></clipPath><clipPath id="1cf9c207b6"><path d="M 26.96875 -10.300781 L 111.71875 17.679688 L 82.09375 107.414062 L -2.65625 79.4375 Z M 26.96875 -10.300781 " clip-rule="nonzero"/></clipPath><clipPath id="36b2f7a9db"><path d="M 26.96875 -10.300781 L 111.71875 17.679688 L 82.09375 107.414062 L -2.65625 79.4375 Z M 26.96875 -10.300781 " clip-rule="nonzero"/></clipPath></defs><g clip-path="url(#dd8e9ad768)"><g clip-path="url(#1cf9c207b6)"><g clip-path="url(#36b2f7a9db)"><path fill="#5271ff" d="M 1.429688 67.109375 C 27.648438 73.890625 28.425781 62.269531 44.226562 49.023438 C 30.796875 47.050781 26.605469 54.386719 17.90625 63.097656 C 25.144531 54.125 29.832031 46.402344 41.023438 47.230469 C 17.914062 40.960938 17.085938 54.296875 1.429688 67.109375 Z M 80.894531 107.027344 C 73.382812 77.40625 84.421875 60.492188 50.730469 47.308594 C 65.0625 56.378906 63.792969 69.9375 64.488281 87.375 C 61.753906 68.96875 63.289062 56.273438 45.203125 46.625 C 52.476562 76.863281 42.976562 91.675781 80.894531 107.027344 Z M 24.09375 2.433594 C 29.042969 22.054688 21.769531 33.257812 44.070312 41.980469 C 34.585938 35.984375 35.414062 26.988281 34.941406 15.46875 C 36.746094 27.648438 35.746094 36.035156 47.710938 42.449219 C 42.902344 22.398438 49.199219 12.597656 24.09375 2.433594 Z M 111.703125 17.679688 C 88.035156 37.003906 86.832031 57.167969 51.914062 47.699219 C 68.828125 48.945312 75.882812 37.296875 86.824219 23.695312 C 73.667969 36.859375 67.34375 47.976562 47.066406 44.957031 C 70.914062 24.988281 72.101562 7.433594 111.703125 17.679688 " fill-opacity="1" fill-rule="evenodd"/></g></g></g></svg>