<svg xmlns="http://www.w3.org/2000/svg" xmlns:xlink="http://www.w3.org/1999/xlink" width="500" zoomAndPan="magnify" viewBox="0 0 375 374.999991" height="500" preserveAspectRatio="xMidYMid meet" version="1.0"><defs><filter x="0%" y="0%" width="100%" height="100%" id="66745c663d"><feColorMatrix values="0 0 0 0 1 0 0 0 0 1 0 0 0 0 1 0 0 0 1 0" color-interpolation-filters="sRGB"/></filter><clipPath id="2855ed1c8e"><path d="M 0 0 L 25.117188 0 L 25.117188 25.117188 L 0 25.117188 Z M 0 0 " clip-rule="nonzero"/></clipPath><mask id="82c6459d7f"><g filter="url(#66745c663d)"><rect x="-37.5" width="450" fill="#000000" y="-37.499999" height="449.999989" fill-opacity="0.8"/></g></mask><clipPath id="fbfabf3a34"><path d="M 0.839844 0 L 25.957031 0 L 25.957031 25.117188 L 0.839844 25.117188 Z M 0.839844 0 " clip-rule="nonzero"/></clipPath><clipPath id="df21a10219"><rect x="0" width="26" y="0" height="26"/></clipPath><mask id="6ec9ed6b13"><g filter="url(#66745c663d)"><rect x="-37.5" width="450" fill="#000000" y="-37.499999" height="449.999989" fill-opacity="0.6"/></g></mask><clipPath id="58a774daf4"><path d="M 0 0.839844 L 25.117188 0.839844 L 25.117188 25.957031 L 0 25.957031 Z M 0 0.839844 " clip-rule="nonzero"/></clipPath><clipPath id="6705ef5369"><rect x="0" width="26" y="0" height="26"/></clipPath><mask id="266285cc6f"><g filter="url(#66745c663d)"><rect x="-37.5" width="450" fill="#000000" y="-37.499999" height="449.999989" fill-opacity="0.4"/></g></mask><clipPath id="0123190272"><path d="M 0.839844 0.839844 L 25.957031 0.839844 L 25.957031 25.957031 L 0.839844 25.957031 Z M 0.839844 0.839844 " clip-rule="nonzero"/></clipPath><clipPath id="91dbc12ea7"><rect x="0" width="26" y="0" height="26"/></clipPath></defs><g clip-path="url(#2855ed1c8e)"><path fill="#5271ff" d="M 0 0 L 25.117188 0 L 25.117188 25.117188 L 0 25.117188 Z M 0 0 " fill-opacity="1" fill-rule="nonzero"/></g><g mask="url(#82c6459d7f)"><g transform="matrix(1, 0, 0, 1, 28, 0)"><g clip-path="url(#df21a10219)"><g clip-path="url(#fbfabf3a34)"><path fill="#5271ff" d="M 0.839844 0 L 25.957031 0 L 25.957031 25.117188 L 0.839844 25.117188 Z M 0.839844 0 " fill-opacity="1" fill-rule="nonzero"/></g></g></g></g><g mask="url(#6ec9ed6b13)"><g transform="matrix(1, 0, 0, 1, 0, 28)"><g clip-path="url(#6705ef5369)"><g clip-path="url(#58a774daf4)"><path fill="#5271ff" d="M 0 0.839844 L 25.117188 0.839844 L 25.117188 25.957031 L 0 25.957031 Z M 0 0.839844 " fill-opacity="1" fill-rule="nonzero"/></g></g></g></g><g mask="url(#266285cc6f)"><g transform="matrix(1, 0, 0, 1, 28, 28)"><g clip-path="url(#91dbc12ea7)"><g clip-path="url(#0123190272)"><path fill="#5271ff" d="M 0.839844 0.839844 L 25.957031 0.839844 L 25.957031 25.957031 L 0.839844 25.957031 Z M 0.839844 0.839844 " fill-opacity="1" fill-rule="nonzero"/></g></g></g></g></svg>